<?xml version="1.0" standalone="no"?>
<!DOCTYPE svg PUBLIC "-//W3C//DTD SVG 20010904//EN"
 "http://www.w3.org/TR/2001/REC-SVG-20010904/DTD/svg10.dtd">
<svg version="1.0" xmlns="http://www.w3.org/2000/svg"
 width="700.000000pt" height="700.000000pt" viewBox="0 0 700.000000 700.000000"
 preserveAspectRatio="xMidYMid meet">
<metadata>
Created by potrace 1.11, written by Peter Selinger 2001-2013
</metadata>
<g transform="translate(0.000000,700.000000) scale(0.100000,-0.100000)"
fill="#000000" stroke="none">
<path d="M3069 6996 c-2 -2 -26 -6 -54 -10 -27 -3 -75 -10 -105 -16 -30 -6
-68 -13 -85 -16 -236 -42 -547 -141 -790 -253 -111 -52 -249 -122 -266 -137
-8 -8 -19 -14 -22 -14 -13 0 -187 -111 -298 -191 -693 -496 -1177 -1220 -1377
-2059 -31 -128 -40 -180 -62 -346 -12 -83 -9 -889 3 -949 3 -16 11 -59 17 -95
6 -36 13 -78 16 -95 15 -87 72 -297 114 -425 292 -886 939 -1629 1779 -2044
304 -150 637 -260 941 -311 80 -13 106 -18 125 -23 35 -9 908 -12 955 -3 25 5
63 11 85 15 271 37 595 131 870 253 393 174 779 437 1069 729 95 95 241 262
320 364 170 221 358 555 466 825 4 11 13 34 20 50 39 94 126 386 144 479 18
93 47 252 55 301 11 62 10 923 -1 960 -3 11 -9 47 -13 80 -3 32 -8 62 -11 66
-2 4 -6 24 -10 45 -11 78 -74 312 -117 444 -86 258 -224 547 -372 779 -42 66
-226 315 -269 366 -499 580 -1131 974 -1846 1150 -74 18 -151 36 -170 39 -19
3 -46 8 -60 11 -14 3 -45 8 -70 11 -25 3 -67 10 -95 14 -48 8 -878 13 -886 6z"/>
</g>
</svg>
