<?xml version="1.0" encoding="utf-8"?>
<!-- Generator: Adobe Illustrator 21.1.0, SVG Export Plug-In . SVG Version: 6.00 Build 0)  -->
<svg version="1.1" id="Layer_1" xmlns="http://www.w3.org/2000/svg" xmlns:xlink="http://www.w3.org/1999/xlink" x="0px" y="0px"
	 viewBox="0 0 24 24" style="enable-background:new 0 0 24 24;" xml:space="preserve">
<style type="text/css">
	.st0{fill:#0059C8;}
</style>
<g>
	<g>
		<g>
			<path class="st0" d="M20.5,3.5C18.2,1.2,15.2,0,12,0S5.8,1.2,3.5,3.5S0,8.8,0,12s1.2,6.2,3.5,8.5S8.8,24,12,24s6.2-1.2,8.5-3.5
				S24,15.2,24,12S22.8,5.8,20.5,3.5z M19.5,19.5c-2,2-4.7,3.1-7.5,3.1s-5.5-1.1-7.5-3.1c-4.1-4.1-4.1-10.9,0-15
				c2-2,4.7-3.1,7.5-3.1s5.5,1.1,7.5,3.1C23.7,8.6,23.7,15.4,19.5,19.5z"/>
			<path class="st0" d="M17.3,6.7c-0.3-0.3-0.7-0.3-1,0L12,11L7.7,6.7c-0.3-0.3-0.7-0.3-1,0c-0.3,0.3-0.3,0.7,0,1L11,12l-4.3,4.3
				c-0.3,0.3-0.3,0.7,0,1c0.1,0.1,0.3,0.2,0.5,0.2c0.2,0,0.3-0.1,0.5-0.2L12,13l4.3,4.3c0.1,0.1,0.3,0.2,0.5,0.2
				c0.2,0,0.3-0.1,0.5-0.2c0.3-0.3,0.3-0.7,0-1L13,12l4.3-4.3C17.6,7.4,17.6,7,17.3,6.7z"/>
		</g>
	</g>
</g>
</svg>
