<?xml version="1.0" encoding="utf-8"?>
<!-- Generator: Adobe Illustrator 21.1.0, SVG Export Plug-In . SVG Version: 6.00 Build 0)  -->
<svg version="1.1" id="Layer_1" xmlns="http://www.w3.org/2000/svg" xmlns:xlink="http://www.w3.org/1999/xlink" x="0px" y="0px"
	 viewBox="0 0 40 40" style="enable-background:new 0 0 40 40;" xml:space="preserve">
<style type="text/css">
	.st0{fill:#095FC9;}
</style>
<g>
	<g>
		<path class="st0" d="M28.4,0H11.6C10,0,8.7,1.3,8.7,2.9v34.2c0,1.6,1.3,2.9,2.9,2.9h16.8c1.6,0,2.9-1.3,2.9-2.9V2.9
			C31.3,1.3,30,0,28.4,0z M15.8,1.8h8.3c0.2,0,0.4,0.3,0.4,0.7s-0.2,0.7-0.4,0.7h-8.3c-0.2,0-0.4-0.3-0.4-0.7
			C15.5,2.1,15.6,1.8,15.8,1.8z M20,37.1c-1,0-1.9-0.8-1.9-1.9s0.8-1.9,1.9-1.9c1,0,1.9,0.8,1.9,1.9S21,37.1,20,37.1z M29.1,30.8
			H10.9V4.9h18.3L29.1,30.8L29.1,30.8z"/>
	</g>
</g>
</svg>
