<?xml version="1.0" encoding="utf-8"?>
<!-- Generator: Adobe Illustrator 21.1.0, SVG Export Plug-In . SVG Version: 6.00 Build 0)  -->
<svg version="1.1" id="Layer_1" xmlns="http://www.w3.org/2000/svg" xmlns:xlink="http://www.w3.org/1999/xlink" x="0px" y="0px"
	 viewBox="0 0 34 28" style="enable-background:new 0 0 34 28;" xml:space="preserve">
<style type="text/css">
	.st0{fill:#0059C8;}
</style>
<g>
	<path class="st0" d="M0.4,15.3C0.1,15.1,0,14.7,0,14.4c0-0.3,0.1-0.7,0.4-0.9l1.9-1.9c0.5-0.5,1.3-0.5,1.9,0l0.1,0.1l7.2,7.7
		c0.3,0.3,0.7,0.3,0.9,0L29.8,1.2h0.1l0,0c0.5-0.5,1.3-0.5,1.9,0l1.9,1.9c0.5,0.5,0.5,1.3,0,1.9l0,0L12.8,26.8
		c-0.3,0.3-0.5,0.4-0.9,0.4s-0.7-0.1-0.9-0.4l-10.3-11L0.4,15.3L0.4,15.3z"/>
</g>
</svg>
