<?xml version="1.0" encoding="utf-8"?>
<!-- Generator: Adobe Illustrator 21.1.0, SVG Export Plug-In . SVG Version: 6.00 Build 0)  -->
<svg version="1.1" id="Layer_1" xmlns="http://www.w3.org/2000/svg" xmlns:xlink="http://www.w3.org/1999/xlink" x="0px" y="0px"
	 viewBox="0 0 24 24" style="enable-background:new 0 0 24 24;" xml:space="preserve">
<style type="text/css">
	.st0{fill:#085EC9;}
</style>
<g>
	<g>
		<g>
			<circle class="st0" cx="10.2" cy="2.7" r="0.7"/>
		</g>
	</g>
	<g>
		<g>
			<rect x="4.9" y="8.8" class="st0" width="10.6" height="0.9"/>
		</g>
	</g>
	<g>
		<g>
			<rect x="4.9" y="16.8" class="st0" width="5.3" height="0.9"/>
		</g>
	</g>
	<g>
		<g>
			<path class="st0" d="M19.9,15.9c0,1.5-1.2,2.7-2.7,2.7v0.9c2,0,3.5-1.6,3.5-3.5H19.9z"/>
		</g>
	</g>
	<g>
		<g>
			<path class="st0" d="M4.9,14.1V15h6.3c0-0.3,0.1-0.6,0.2-0.9H4.9L4.9,14.1z"/>
		</g>
	</g>
	<g>
		<g>
			<path class="st0" d="M4.9,11.5v0.9h7.3c0.2-0.3,0.5-0.6,0.7-0.9H4.9z"/>
		</g>
	</g>
	<g>
		<g>
			<path class="st0" d="M17.3,10.6c-2.9,0-5.3,2.4-5.3,5.3c0,1,0.3,1.9,0.7,2.7l-3.3,3.3c-0.1,0.1-0.1,0.2-0.2,0.2c-2,0-4.1,0-6.1,0
				c-0.5,0-0.9-0.4-0.9-0.9V5.3c0-0.5,0.4-0.9,0.9-0.9h1.9C5,4.7,4.9,5,4.9,5.3v1.8h10.6V5.3c0-0.3-0.1-0.6-0.2-0.9h1.9
				c0.5,0,0.9,0.4,0.9,0.9c0,0.8,0,2.5,0,4.5c0.3,0,0.6,0.1,0.9,0.2c0-1.5,0-3,0-4.7c0-1-0.8-1.8-1.8-1.8h-2.5
				c-0.3-0.4-0.7-0.6-1.2-0.8c-0.4-0.1-0.7-0.4-0.8-0.8C12.5,0.8,11.4,0,10.2,0S8,0.8,7.7,1.9C7.6,2.3,7.3,2.6,6.8,2.8
				C6.4,2.9,5.9,3.2,5.6,3.5H3.2c-1,0-1.8,0.8-1.8,1.8v15.9c0,1,0.8,1.8,1.8,1.8c1.9,0,4,0,6.2,0c0,0,0,0.1,0.1,0.1l0.6,0.6
				c0.2,0.2,0.4,0.3,0.6,0.3c0.2,0,0.5-0.1,0.6-0.3l0.7-0.7c1.7,0,3.5,0,5.2,0c1,0,1.8-0.8,1.8-1.8c0-0.1,0-0.2,0-0.3
				c2.1-0.7,3.5-2.7,3.5-5C22.6,13,20.2,10.6,17.3,10.6z M5.8,5.3c0-0.8,0.5-1.5,1.3-1.7c0.7-0.2,1.2-0.7,1.4-1.4
				c0.2-0.8,0.9-1.3,1.7-1.3c0.8,0,1.5,0.5,1.7,1.3c0.2,0.7,0.7,1.2,1.4,1.4c0.8,0.2,1.3,0.9,1.3,1.7v0.9H5.8V5.3z M10.7,23.1
				l-0.6-0.6l3.2-3.2c0.2,0.2,0.4,0.4,0.6,0.6L10.7,23.1z M18.2,21.2c0,0.5-0.4,0.9-0.9,0.9c-1.4,0-2.9,0-4.3,0l1.6-1.6
				c0.8,0.5,1.7,0.7,2.7,0.7C17.6,21.2,17.9,21.2,18.2,21.2C18.2,21.2,18.2,21.2,18.2,21.2z M17.3,20.3c-2.4,0-4.4-2-4.4-4.4
				s2-4.4,4.4-4.4s4.4,2,4.4,4.4S19.7,20.3,17.3,20.3z"/>
		</g>
	</g>
</g>
</svg>
