<?xml version="1.0" encoding="utf-8"?>
<!-- Generator: Adobe Illustrator 21.1.0, SVG Export Plug-In . SVG Version: 6.00 Build 0)  -->
<svg version="1.1" id="Layer_1" xmlns="http://www.w3.org/2000/svg" xmlns:xlink="http://www.w3.org/1999/xlink" x="0px" y="0px"
	 viewBox="0 0 14 14" style="enable-background:new 0 0 14 14;" xml:space="preserve">
<style type="text/css">
	.st0{fill:#FAFAFA;}
</style>
<g>
	<path class="st0" d="M7,1.3c3.2,0,5.7,2.5,5.7,5.7s-2.5,5.7-5.7,5.7S1.3,10.2,1.3,7S3.9,1.3,7,1.3z M7,0C3.1,0,0,3.1,0,7s3.1,7,7,7
		s7-3.2,7-7S10.8,0,7,0L7,0z"/>
	<path class="st0" d="M8.7,9C8.2,9.4,7.6,9.6,7,9.6C5.5,9.6,4.4,8.5,4.4,7S5.5,4.4,7,4.4c0.7,0,1.4,0.3,1.8,0.8l1-1
		C9.1,3.5,8.1,3.1,7,3.1C4.8,3.1,3.1,4.8,3.1,7s1.8,3.9,3.9,3.9c1,0,1.8-0.3,2.4-0.9L8.7,9L8.7,9z"/>
</g>
</svg>
