<?xml version="1.0" encoding="utf-8"?>
<!-- Generator: Adobe Illustrator 21.1.0, SVG Export Plug-In . SVG Version: 6.00 Build 0)  -->
<svg version="1.1" id="Layer_1" xmlns="http://www.w3.org/2000/svg" xmlns:xlink="http://www.w3.org/1999/xlink" x="0px" y="0px"
	 viewBox="0 0 24 24" style="enable-background:new 0 0 24 24;" xml:space="preserve">
<style type="text/css">
	.st0{fill:#085EC9;}
</style>
<g>
	<g>
		<path id="Dropbox_1_" class="st0" d="M19.5,9.5l-7.2-4.4l4.5-3.7L24,5.8L19.5,9.5z M16.8,17.7l6.9-4l-4.1-3.5l-6.7,4.1L16.8,17.7z
			 M11.2,14.3l-6.8-4.1l-4.1,3.5l6.9,4L11.2,14.3z M4.8,17.1v1.3l6.9,4.2v-8l-4.6,3.7L4.8,17.1z M19.2,17.1l-2.3,1.2l-4.6-3.7v8
			l6.9-4.2V17.1z M11.7,5.1L7.2,1.3L0,5.8l4.5,3.7L11.7,5.1z"/>
	</g>
</g>
</svg>
