<?xml version="1.0" encoding="utf-8"?>
<!-- Generator: Adobe Illustrator 21.1.0, SVG Export Plug-In . SVG Version: 6.00 Build 0)  -->
<svg version="1.1" id="Layer_1" xmlns="http://www.w3.org/2000/svg" xmlns:xlink="http://www.w3.org/1999/xlink" x="0px" y="0px"
	 viewBox="0 0 24 24" style="enable-background:new 0 0 24 24;" xml:space="preserve">
<style type="text/css">
	.st0{fill:#FAFAFA;}
</style>
<g>
	<path class="st0" d="M18.4,6.2c0,0.7-0.5,1.2-0.9,1.5C17.3,7.8,17,8.1,17,8.1c0,0.3-0.3,0.6-0.6,0.6c0,0,0,0,0,0
		c-0.3,0-0.6-0.3-0.6-0.6c0-0.6,0.5-1,0.8-1.3c0.3-0.2,0.5-0.4,0.5-0.6c0-0.3-0.3-0.6-0.6-0.6c-0.3,0-0.6,0.3-0.6,0.6
		c0,0.3-0.3,0.6-0.6,0.6c-0.3,0-0.6-0.3-0.6-0.6c0-1,0.8-1.8,1.8-1.8C17.6,4.4,18.4,5.2,18.4,6.2z M16.4,9.3c-0.3,0-0.6,0.3-0.6,0.6
		v0c0,0.3,0.3,0.6,0.6,0.6c0.3,0,0.6-0.3,0.6-0.6C17,9.6,16.8,9.3,16.4,9.3z M4.5,13.4c-0.3,0-0.6,0.3-0.6,0.6s0.3,0.6,0.6,0.6h0
		c0.3,0,0.6-0.3,0.6-0.6S4.8,13.4,4.5,13.4L4.5,13.4z M6.5,13.4c-0.3,0-0.6,0.3-0.6,0.6s0.3,0.6,0.6,0.6h0c0.3,0,0.6-0.3,0.6-0.6
		S6.9,13.4,6.5,13.4L6.5,13.4z M24,3.9v6.7c0,1.6-1.3,2.9-2.9,2.9h-7.7c-0.2,0-0.3,0-0.4,0c-0.1,0-0.2,0-0.3,0c0,0-0.2,0.1-0.3,0.3
		c0,0-0.1,0.1-0.2,0.1l-2.2,2C10,16,9.7,16.1,9.5,16c-0.2-0.1-0.4-0.3-0.4-0.5V9.1H2.9c-0.9,0-1.7,0.8-1.7,1.7v6.7
		c0,0.9,0.8,1.7,1.7,1.7h8.6c0.1,0,0.3,0.1,0.4,0.2l1.8,1.6v-5.7c0-0.3,0.3-0.6,0.6-0.6s0.6,0.3,0.6,0.6v7c0,0.2-0.1,0.4-0.4,0.5
		c-0.1,0-0.2,0-0.2,0c-0.1,0-0.3-0.1-0.4-0.2l-2.6-2.4H2.9c-1.6,0-2.9-1.3-2.9-2.9v-6.7c0-1.6,1.3-2.9,2.9-2.9h6.2v-4
		c0-1.6,1.3-2.9,2.9-2.9h9.1C22.7,1.1,24,2.3,24,3.9z M22.8,3.9c0-0.9-0.7-1.7-1.7-1.7H12c-0.9,0-1.7,0.7-1.7,1.7v4.6v5.5l1.2-1.1
		c0.1-0.1,0.1-0.1,0.2-0.1c0.5-0.5,0.7-0.6,1.4-0.6c0.1,0,0.2,0,0.4,0h7.7c0.9,0,1.7-0.8,1.7-1.7L22.8,3.9L22.8,3.9z"/>
</g>
</svg>
