<?xml version="1.0" encoding="utf-8"?>
<!-- Generator: Adobe Illustrator 21.1.0, SVG Export Plug-In . SVG Version: 6.00 Build 0)  -->
<svg version="1.1" id="Layer_1" xmlns="http://www.w3.org/2000/svg" xmlns:xlink="http://www.w3.org/1999/xlink" x="0px" y="0px"
	 viewBox="0 0 210 40" style="enable-background:new 0 0 210 40;" xml:space="preserve">
<style type="text/css">
	.st0{fill:#FFFFFF;}
	.st1{fill:none;stroke:#FFFFFF;stroke-width:0.9768;stroke-miterlimit:10;}
</style>
<path class="st0" d="M16.7,12.1c3.2,0,5.9,1.2,8.1,3.7c2.2,2.4,3.4,5.4,3.4,9s-1.1,6.6-3.4,9c-2.2,2.4-4.9,3.7-8.1,3.7
	c-3.1,0-5.5-1-7.2-2.9v2.3H2.4V3.2h7.2v11.9C11.3,13.1,13.7,12.1,16.7,12.1z M11.2,29.1c1.1,1.1,2.4,1.6,4.1,1.6
	c1.7,0,3-0.5,4.1-1.6c1.1-1.1,1.6-2.5,1.6-4.3c0-1.8-0.5-3.2-1.6-4.3c-1.1-1.1-2.4-1.6-4.1-1.6c-1.7,0-3,0.5-4.1,1.6
	c-1.1,1.1-1.6,2.5-1.6,4.3C9.6,26.6,10.1,28,11.2,29.1z"/>
<path class="st0" d="M66.9,19.8c0,0.5,0.4,0.9,1.2,1.2c0.8,0.3,1.8,0.6,3,0.9c1.2,0.3,2.3,0.7,3.5,1.2c1.2,0.5,2.1,1.3,3,2.4
	s1.2,2.5,1.2,4.2c0,2.6-1,4.6-2.9,5.9c-1.9,1.3-4.3,2-7.1,2c-5.1,0-8.5-1.9-10.3-5.7l6.2-3.6c0.6,1.9,2,2.8,4.1,2.8
	c1.7,0,2.6-0.5,2.6-1.5c0-0.5-0.4-0.9-1.2-1.2c-0.8-0.3-1.8-0.6-3-0.9c-1.2-0.3-2.3-0.7-3.5-1.2c-1.2-0.5-2.1-1.3-3-2.3
	c-0.8-1.1-1.2-2.4-1.2-3.9c0-2.5,0.9-4.4,2.7-5.8c1.8-1.4,4-2.1,6.7-2.1c2,0,3.8,0.4,5.4,1.3c1.6,0.9,2.9,2.2,3.9,3.8l-6.1,3.3
	c-0.8-1.4-1.8-2.1-3.2-2.1C67.6,18.5,66.9,18.9,66.9,19.8z"/>
<path class="st0" d="M88,19.8c0,0.5,0.4,0.9,1.2,1.2c0.8,0.3,1.8,0.6,3,0.9c1.2,0.3,2.3,0.7,3.5,1.2c1.2,0.5,2.1,1.3,3,2.4
	s1.2,2.5,1.2,4.2c0,2.6-1,4.6-2.9,5.9c-1.9,1.3-4.3,2-7.1,2c-5.1,0-8.5-1.9-10.3-5.7l6.2-3.6c0.6,1.9,2,2.8,4.1,2.8
	c1.7,0,2.6-0.5,2.6-1.5c0-0.5-0.4-0.9-1.2-1.2c-0.8-0.3-1.8-0.6-3-0.9c-1.2-0.3-2.3-0.7-3.5-1.2c-1.2-0.5-2.1-1.3-3-2.3
	c-0.8-1.1-1.2-2.4-1.2-3.9c0-2.5,0.9-4.4,2.7-5.8c1.8-1.4,4-2.1,6.7-2.1c2,0,3.8,0.4,5.4,1.3c1.6,0.9,2.9,2.2,3.9,3.8l-6.1,3.3
	c-0.8-1.4-1.8-2.1-3.2-2.1C88.6,18.5,88,18.9,88,19.8z"/>
<path class="st0" d="M101.4,3.2h22.1v6.4l-10.9,27.2h-8.2L115,10.6h-13.5V3.2z"/>
<path class="st0" d="M145.3,19.3c2.9,1.9,4.4,4.6,4.4,8.1c0,3.1-1.1,5.6-3.2,7.4c-2.2,1.8-5.2,2.7-9.1,2.7c-3.9,0-6.9-0.9-9.1-2.7
	c-2.2-1.8-3.2-4.3-3.2-7.4c0-3.5,1.5-6.2,4.4-8.1c-2.1-1.7-3.2-3.9-3.2-6.8c0-3.1,1.1-5.6,3.2-7.3c2.1-1.8,4.8-2.6,8-2.6
	c3.2,0,5.9,0.9,8,2.6c2.1,1.8,3.2,4.2,3.2,7.3C148.5,15.4,147.4,17.6,145.3,19.3z M133.9,29.2c0.9,0.7,2,1.1,3.4,1.1
	c1.4,0,2.5-0.4,3.4-1.1c0.9-0.7,1.3-1.7,1.3-3s-0.4-2.2-1.3-3c-0.9-0.7-2-1.1-3.4-1.1c-1.4,0-2.5,0.4-3.4,1.1
	c-0.9,0.7-1.3,1.7-1.3,3S133.1,28.5,133.9,29.2z M139.8,10.6c-0.6-0.6-1.5-0.9-2.5-0.9c-1.1,0-1.9,0.3-2.5,0.9c-0.6,0.6-1,1.4-1,2.4
	s0.3,1.7,1,2.4c0.6,0.6,1.5,0.9,2.5,0.9c1.1,0,1.9-0.3,2.5-0.9c0.6-0.6,1-1.4,1-2.4S140.5,11.2,139.8,10.6z"/>
<path class="st0" d="M161,36.1c-0.9,0.9-2,1.3-3.2,1.3c-1.2,0-2.3-0.4-3.2-1.3c-0.9-0.9-1.3-2-1.3-3.2s0.4-2.3,1.3-3.2
	c0.9-0.9,2-1.3,3.2-1.3c1.2,0,2.3,0.4,3.2,1.3c0.9,0.9,1.3,2,1.3,3.2S161.9,35.2,161,36.1z"/>
<path class="st0" d="M174.4,17.1c0.4-1.5,1.4-2.7,2.7-3.5s2.9-1.2,4.5-1.2v8.2c-1.8-0.3-3.4,0-4.9,0.9c-1.5,0.9-2.3,2.4-2.3,4.6
	v10.8h-7.2v-24h7.2V17.1z"/>
<path class="st0" d="M200.4,12.8h7.2v24h-7.2v-2.3c-1.4,2-3.7,2.9-6.9,2.9c-2.6,0-4.7-0.9-6.4-2.6c-1.7-1.8-2.6-4.2-2.6-7.3V12.8
	h7.2v13.7c0,1.4,0.4,2.5,1.2,3.2c0.8,0.8,1.8,1.1,3,1.1c1.4,0,2.5-0.4,3.3-1.2c0.8-0.8,1.2-2.1,1.2-3.7V12.8z"/>
<g>
	<path class="st1" d="M52.3,22.8c0-4,3.2-5.9,3.4-6c-1.8-2.7-4.7-3.1-5.7-3.1c-2.4-0.2-4.7,1.4-6,1.4c-1.2,0-3.1-1.4-5.2-1.4
		c-2.7,0-5.1,1.5-6.5,3.9c-2.8,4.8-0.7,11.9,2,15.7c1.3,1.9,2.9,4,4.9,4c2-0.1,2.7-1.3,5.1-1.3c2.4,0,3.1,1.3,5.2,1.2
		c2.1,0,3.5-1.9,4.8-3.8c1.5-2.2,2.1-4.3,2.2-4.4C56.4,29.1,52.3,27.6,52.3,22.8z"/>
</g>
<path class="st0" d="M43.2,7.2c1.4,3,0.4,6.5,0.4,6.5s-3.4-1.3-4.9-4.3c-1.4-3-0.4-6.5-0.4-6.5S41.8,4.2,43.2,7.2z"/>
</svg>
