<?xml version="1.0" encoding="utf-8"?>
<!-- Generator: Adobe Illustrator 21.1.0, SVG Export Plug-In . SVG Version: 6.00 Build 0)  -->
<svg version="1.1" id="Layer_1" xmlns="http://www.w3.org/2000/svg" xmlns:xlink="http://www.w3.org/1999/xlink" x="0px" y="0px"
	 viewBox="0 0 35 35" style="enable-background:new 0 0 35 35;" xml:space="preserve">
<style type="text/css">
	.st0{fill:#FFFFFF;}
</style>
<g>
	<g>
		<g>
			<path class="st0" d="M34,29.4l-8-8c-1.2,1.9-2.8,3.4-4.6,4.6l8,8c1.3,1.3,3.4,1.3,4.6,0C35.3,32.8,35.3,30.7,34,29.4z"/>
			<path class="st0" d="M26.3,13.1C26.3,5.9,20.4,0,13.1,0C5.9,0,0,5.9,0,13.1s5.9,13.1,13.1,13.1C20.4,26.2,26.3,20.4,26.3,13.1z
				 M13.1,23c-5.4,0-9.8-4.4-9.8-9.8s4.4-9.8,9.8-9.8c5.4,0,9.8,4.4,9.8,9.8S18.6,23,13.1,23z"/>
			<path class="st0" d="M5.5,13.1h2.2c0-3,2.5-5.5,5.5-5.5V5.5C8.9,5.5,5.5,8.9,5.5,13.1z"/>
		</g>
	</g>
</g>
</svg>
