<?xml version="1.0" encoding="utf-8"?>
<!-- Generator: Adobe Illustrator 21.1.0, SVG Export Plug-In . SVG Version: 6.00 Build 0)  -->
<svg version="1.1" id="Layer_1" xmlns="http://www.w3.org/2000/svg" xmlns:xlink="http://www.w3.org/1999/xlink" x="0px" y="0px"
	 viewBox="0 0 40 40" style="enable-background:new 0 0 40 40;" xml:space="preserve">
<style type="text/css">
	.st0{fill:#095FC9;}
</style>
<g>
	<g>
		<g>
			<g>
				<path class="st0" d="M32.9,30.5v-26c0-0.4-0.3-0.7-0.7-0.7h-5.5v-3c0-0.4-0.3-0.7-0.7-0.7H13.3c-0.4,0-0.7,0.3-0.7,0.7v3H7.1
					c-0.4,0-0.7,0.3-0.7,0.7v34.8c0,0.4,0.3,0.7,0.7,0.7h25.1c0.4,0,0.7-0.3,0.7-0.7v-4.3c0.5-0.6,0.8-1.4,0.8-2.2
					S33.4,31.1,32.9,30.5z M14.1,1.5h11.1v2.2H14.1L14.1,1.5L14.1,1.5z M31.4,38.5H7.8V5.2h5.5h12.5h5.5v24.1C31,29.1,30.5,29,30,29
					h-0.1V7.4c0-0.4-0.3-0.7-0.7-0.7H10C9.6,6.7,9.3,7,9.3,7.4v25.3c0,2,1.6,3.7,3.7,3.7h17c0.5,0,1-0.1,1.4-0.3V38.5z M13,30.5
					c1.2,0,2.2,1,2.2,2.2s-1,2.2-2.2,2.2s-2.2-1-2.2-2.2V8.2h17.6V29H13c-0.4,0-0.7,0.3-0.7,0.7S12.6,30.5,13,30.5z M30,34.9H15.9h0
					c0.5-0.6,0.7-1.4,0.7-2.2c0-0.8-0.3-1.6-0.7-2.2H30c1.2,0,2.2,1,2.2,2.2S31.2,34.9,30,34.9z"/>
				<path class="st0" d="M13.8,17.4h4.5c0.4,0,0.7-0.3,0.7-0.7v-4.5c0-0.4-0.3-0.7-0.7-0.7h-4.5c-0.4,0-0.7,0.3-0.7,0.7v4.5
					C13,17,13.4,17.4,13.8,17.4z M17.6,12.8v3.1h-3.1l0-3.1L17.6,12.8L17.6,12.8z"/>
				<path class="st0" d="M21.2,13.8H26c0.4,0,0.7-0.3,0.7-0.7c0-0.4-0.3-0.7-0.7-0.7h-4.7c-0.4,0-0.7,0.3-0.7,0.7
					C20.5,13.5,20.8,13.8,21.2,13.8z"/>
				<path class="st0" d="M21.2,16.5H26c0.4,0,0.7-0.3,0.7-0.7c0-0.4-0.3-0.7-0.7-0.7h-4.7c-0.4,0-0.7,0.3-0.7,0.7
					C20.5,16.1,20.8,16.5,21.2,16.5z"/>
				<path class="st0" d="M13.8,25.7h4.5c0.4,0,0.7-0.3,0.7-0.7v-4.5c0-0.4-0.3-0.7-0.7-0.7h-4.5c-0.4,0-0.7,0.3-0.7,0.7V25
					C13,25.4,13.4,25.7,13.8,25.7z M17.6,21.2v3.1h-3.1l0-3.1L17.6,21.2L17.6,21.2z"/>
				<path class="st0" d="M21.2,22.1H26c0.4,0,0.7-0.3,0.7-0.7s-0.3-0.7-0.7-0.7h-4.7c-0.4,0-0.7,0.3-0.7,0.7
					C20.5,21.8,20.8,22.1,21.2,22.1z"/>
				<path class="st0" d="M21.2,24.8H26c0.4,0,0.7-0.3,0.7-0.7s-0.3-0.7-0.7-0.7h-4.7c-0.4,0-0.7,0.3-0.7,0.7
					C20.5,24.5,20.8,24.8,21.2,24.8z"/>
			</g>
		</g>
	</g>
</g>
</svg>
