<?xml version="1.0" encoding="utf-8"?>
<!-- Generator: Adobe Illustrator 21.1.0, SVG Export Plug-In . SVG Version: 6.00 Build 0)  -->
<svg version="1.1" id="Layer_1" xmlns="http://www.w3.org/2000/svg" xmlns:xlink="http://www.w3.org/1999/xlink" x="0px" y="0px"
	 viewBox="0 0 35 35" style="enable-background:new 0 0 35 35;" xml:space="preserve">
<style type="text/css">
	.st0{fill:#FFFFFF;}
</style>
<g>
	<g>
		<path class="st0" d="M31.7,0.4C31.4,0.1,31,0,30.6,0H4.4C4,0,3.6,0.1,3.3,0.4c-0.3,0.3-0.4,0.6-0.4,1V19c0,1.3,0.3,2.6,0.8,3.9
			c0.5,1.3,1.1,2.4,1.9,3.4c0.8,1,1.6,2,2.7,2.9c1,0.9,2,1.7,2.9,2.3c0.9,0.6,1.8,1.2,2.8,1.8c1,0.6,1.6,0.9,2,1.1
			c0.4,0.2,0.7,0.3,1,0.5c0.2,0.1,0.4,0.1,0.6,0.1c0.2,0,0.4,0,0.6-0.1c0.2-0.1,0.6-0.3,1-0.5c0.4-0.2,1.1-0.6,2-1.1
			c1-0.6,1.9-1.1,2.8-1.8c0.9-0.6,1.8-1.4,2.9-2.3c1-0.9,1.9-1.9,2.7-2.9c0.8-1,1.4-2.1,1.9-3.4c0.5-1.3,0.8-2.6,0.8-3.9V1.5
			C32.1,1.1,31.9,0.7,31.7,0.4z M27.7,19c0,2.7-1.8,5.4-5.4,8.2c-1.4,1.1-3,2.2-4.9,3.1V4.4h10.2V19z"/>
	</g>
</g>
</svg>
