<?xml version="1.0" encoding="utf-8"?>
<!-- Generator: Adobe Illustrator 21.1.0, SVG Export Plug-In . SVG Version: 6.00 Build 0)  -->
<svg version="1.1" id="Layer_1" xmlns="http://www.w3.org/2000/svg" xmlns:xlink="http://www.w3.org/1999/xlink" x="0px" y="0px"
	 viewBox="0 0 40 40" style="enable-background:new 0 0 40 40;" xml:space="preserve">
<style type="text/css">
	.st0{fill:#095FC9;}
</style>
<g>
	<g>
		<g>
			<path class="st0" d="M39.5,22.3c-0.2-0.8-0.4-1.6-0.4-2.3s0.2-1.5,0.4-2.3c0.4-1.3,0.7-2.6,0.3-3.9c-0.5-1.3-1.6-2.2-2.7-3.1
				c-0.7-0.5-1.3-1-1.7-1.5c-0.4-0.5-0.7-1.3-1-2c-0.5-1.3-1-2.6-2.2-3.4c-1.1-0.8-2.6-0.9-4-1c-0.9,0-1.7-0.1-2.4-0.3
				c-0.6-0.2-1.3-0.6-2-1C22.8,0.8,21.5,0,20,0s-2.8,0.8-3.9,1.5c-0.7,0.4-1.4,0.9-2,1c-0.7,0.2-1.5,0.3-2.4,0.3
				c-1.4,0.1-2.8,0.2-4,1C6.6,4.6,6.1,5.9,5.6,7.2C5.3,8,5,8.7,4.6,9.2c-0.4,0.5-1,1-1.7,1.5c-1.1,0.9-2.2,1.7-2.7,3.1
				c-0.4,1.3-0.1,2.6,0.3,3.9c0.2,0.8,0.4,1.6,0.4,2.3s-0.2,1.5-0.4,2.3c-0.4,1.3-0.7,2.6-0.3,3.9c0.5,1.3,1.6,2.2,2.7,3.1
				c0.7,0.5,1.3,1,1.7,1.5c0.4,0.5,0.7,1.3,1,2c0.5,1.3,1,2.6,2.2,3.4c1.1,0.8,2.6,0.9,4,1c0.9,0,1.7,0.1,2.4,0.3
				c0.6,0.2,1.3,0.6,2,1c1.1,0.7,2.4,1.5,3.9,1.5s2.8-0.8,3.9-1.5c0.7-0.4,1.4-0.8,2-1c0.7-0.2,1.5-0.3,2.4-0.3c1.4-0.1,2.8-0.2,4-1
				c1.2-0.8,1.7-2.1,2.2-3.4c0.3-0.8,0.6-1.5,1-2c0.4-0.5,1-1,1.7-1.5c1.1-0.9,2.2-1.7,2.7-3.1C40.2,24.9,39.9,23.6,39.5,22.3z
				 M38.2,25.7c-0.3,0.9-1.2,1.5-2.1,2.3c-0.7,0.6-1.5,1.1-2,1.8c-0.6,0.7-0.9,1.6-1.2,2.4c-0.4,1.1-0.8,2.1-1.6,2.6
				c-0.7,0.5-1.9,0.6-3.1,0.6c-0.9,0-1.9,0.1-2.8,0.4c-0.9,0.3-1.6,0.8-2.4,1.2c-1,0.6-2,1.2-3,1.2s-1.9-0.6-3-1.2
				c-0.8-0.5-1.6-1-2.4-1.2c-0.9-0.3-1.9-0.3-2.8-0.4c-1.2-0.1-2.3-0.1-3.1-0.6c-0.7-0.5-1.2-1.5-1.6-2.6c-0.3-0.8-0.7-1.7-1.2-2.4
				c-0.5-0.7-1.3-1.3-2-1.8c-0.9-0.7-1.8-1.4-2.1-2.3c-0.3-0.8,0-1.8,0.3-2.9C2.4,21.9,2.7,21,2.7,20c0-0.9-0.3-1.8-0.5-2.7
				c-0.3-1.1-0.6-2.1-0.3-2.9C2.1,13.5,3,12.8,4,12.1c0.7-0.6,1.5-1.1,2-1.8c0.6-0.7,0.9-1.6,1.2-2.4C7.6,6.8,8,5.8,8.8,5.3
				c0.7-0.5,1.9-0.6,3.1-0.6c0.9-0.1,1.9-0.1,2.8-0.4C15.5,4,16.3,3.5,17,3c1-0.6,2-1.2,3-1.2c1,0,1.9,0.6,3,1.2
				c0.8,0.5,1.6,1,2.4,1.2c0.9,0.3,1.9,0.3,2.8,0.4c1.2,0.1,2.3,0.1,3.1,0.6c0.7,0.5,1.1,1.5,1.6,2.6c0.3,0.8,0.7,1.7,1.2,2.4
				c0.5,0.7,1.3,1.3,2,1.8c0.9,0.7,1.8,1.4,2.1,2.3c0.3,0.8,0,1.8-0.3,2.9c-0.2,0.9-0.5,1.8-0.5,2.7c0,0.9,0.3,1.8,0.5,2.7
				C38.1,23.8,38.4,24.9,38.2,25.7z"/>
		</g>
	</g>
	<g>
		<g>
			<path class="st0" d="M20,7C12.8,7,7,12.8,7,20s5.9,13,13,13s13-5.9,13-13S27.2,7,20,7z M20,31.3c-6.2,0-11.3-5.1-11.3-11.3
				S13.8,8.7,20,8.7c3.2,0,6.1,1.4,8.2,3.5l-8.3,11.7l-4.5-4.5c-0.3-0.3-0.9-0.3-1.2,0s-0.3,0.9,0,1.2l5.2,5.2
				c0.2,0.2,0.4,0.3,0.6,0.3c0,0,0,0,0.1,0c0.3,0,0.5-0.2,0.6-0.4l8.6-12.1c1.3,1.8,2,4,2,6.4C31.3,26.3,26.2,31.3,20,31.3z"/>
		</g>
	</g>
</g>
</svg>
